{
  "accessors": [
    {
      "name": "Cube.128-Mesh_0_positions",
      "componentType": 5126,
      "count": 3367,
      "min": [
        -0.5592210292816162,
        0.022376999258995056,
        -0.28013700246810913
      ],
      "max": [
        0.5592210292816162,
        0.4491789937019348,
        0.28013700246810913
      ],
      "type": "VEC3",
      "bufferView": 0,
      "byteOffset": 0
    },
    {
      "name": "Cube.128-Mesh_0_normals",
      "componentType": 5126,
      "count": 3367,
      "min": [
        -1,
        -1,
        -1
      ],
      "max": [
        1,
        1,
        1
      ],
      "type": "VEC3",
      "bufferView": 1,
      "byteOffset": 0
    },
    {
      "name": "Cube.128-Mesh_0_texcoords",
      "componentType": 5126,
      "count": 3367,
      "min": [
        0,
        0
      ],
      "max": [
        0.7666019797325134,
        1
      ],
      "type": "VEC2",
      "bufferView": 2,
      "byteOffset": 0
    },
    {
      "name": "Cube.128-Mesh_0_indices",
      "componentType": 5123,
      "count": 11106,
      "min": [
        0
      ],
      "max": [
        3366
      ],
      "type": "SCALAR",
      "bufferView": 3,
      "byteOffset": 0
    }
  ],
  "asset": {
    "generator": "obj2gltf",
    "version": "2.0"
  },
  "buffers": [
    {
      "name": "uploads-files-2086791-toy-brick",
      "byteLength": 129956,
      "uri": "data:application/octet-stream;base64,"
    }
  ],
  "bufferViews": [
    {
      "name": "bufferView_0",
      "buffer": 0,
      "byteLength": 40404,
      "byteOffset": 0,
      "byteStride": 12,
      "target": 34962
    },
    {
      "name": "bufferView_1",
      "buffer": 0,
      "byteLength": 40404,
      "byteOffset": 40404,
      "byteStride": 12,
      "target": 34962
    },
    {
      "name": "bufferView_2",
      "buffer": 0,
      "byteLength": 26936,
      "byteOffset": 80808,
      "byteStride": 8,
      "target": 34962
    },
    {
      "name": "bufferView_3",
      "buffer": 0,
      "byteLength": 22212,
      "byteOffset": 107744,
      "target": 34963
    }
  ],
  "materials": [
    {
      "name": "Material.001",
      "pbrMetallicRoughness": {
        "baseColorFactor": [
          0.800003,
          0,
          0.00103,
          1
        ],
        "metallicFactor": 0,
        "roughnessFactor": 0.42400000400000004
      },
      "emissiveFactor": [
        0,
        0,
        0
      ],
      "alphaMode": "OPAQUE",
      "doubleSided": false
    }
  ],
  "meshes": [
    {
      "name": "Cube.128-Mesh",
      "primitives": [
        {
          "attributes": {
            "POSITION": 0,
            "NORMAL": 1,
            "TEXCOORD_0": 2
          },
          "indices": 3,
          "material": 0,
          "mode": 4
        }
      ]
    }
  ],
  "nodes": [
    {
      "name": "Cube.128",
      "mesh": 0
    }
  ],
  "scene": 0,
  "scenes": [
    {
      "nodes": [
        0
      ]
    }
  ]
}
