{
  "asset": {
    "generator": "Khronos glTF Blender I/O v1.4.40",
    "version": "2.0"
  },
  "scene": 0,
  "scenes": [
    {
      "name": "Scene",
      "nodes": [0]
    }
  ],
  "nodes": [
    {
      "mesh": 0,
      "name": "box_low",
      "rotation": [0.7071068286895752, 0, 0, 0.7071067094802856],
      "scale": [0.10000000149011612, 0.10000000149011612, 0.10000000149011612],
      "translation": [0.15584412217140198, 0.38961029052734375, 0]
    }
  ],
  "materials": [
    {
      "doubleSided": true,
      "name": "03 - Default",
      "pbrMetallicRoughness": {
        "baseColorFactor": [
          0.5882353186607361, 0.5882353186607361, 0.5882353186607361, 1
        ],
        "metallicFactor": 1,
        "roughnessFactor": 1
      }
    }
  ],
  "meshes": [
    {
      "name": "Mesh",
      "primitives": [
        {
          "attributes": {
            "POSITION": 0,
            "NORMAL": 1,
            "TEXCOORD_0": 2
          },
          "indices": 3,
          "material": 0
        }
      ]
    }
  ],
  "accessors": [
    {
      "bufferView": 0,
      "componentType": 5126,
      "count": 1184,
      "max": [23.422504425048828, 4.2307257652282715, 3.867952346801758],
      "min": [-20, -2.606840133666992, -20.391592025756836],
      "type": "VEC3"
    },
    {
      "bufferView": 1,
      "componentType": 5126,
      "count": 1184,
      "type": "VEC3"
    },
    {
      "bufferView": 2,
      "componentType": 5126,
      "count": 1184,
      "type": "VEC2"
    },
    {
      "bufferView": 3,
      "componentType": 5123,
      "count": 3198,
      "type": "SCALAR"
    }
  ],
  "bufferViews": [
    {
      "buffer": 0,
      "byteLength": 14208,
      "byteOffset": 0
    },
    {
      "buffer": 0,
      "byteLength": 14208,
      "byteOffset": 14208
    },
    {
      "buffer": 0,
      "byteLength": 9472,
      "byteOffset": 28416
    },
    {
      "buffer": 0,
      "byteLength": 6396,
      "byteOffset": 37888
    }
  ],
  "buffers": [
    {
      "byteLength": 44284,
      "uri": "data:application/octet-stream;base64,"
    }
  ]
}
