<svg width="1280" height="832" viewBox="0 0 1280 832" fill="none" xmlns="http://www.w3.org/2000/svg">
<rect width="1280" height="832" fill="black"/>
<rect x="117" y="190" width="1047" height="451" rx="13" fill="black"/>
<rect x="117.5" y="190.5" width="1046" height="450" rx="12.5" stroke="white" stroke-opacity="0.5"/>
<rect x="205" y="200" width="131" height="25" rx="11" fill="black"/>
<rect x="205.5" y="200.5" width="130" height="24" rx="10.5" stroke="white" stroke-opacity="0.5"/>
<rect x="211" y="205" width="16" height="15" rx="5" fill="black"/>
<rect x="211.5" y="205.5" width="15" height="14" rx="4.5" stroke="white" stroke-opacity="0.3"/>
<rect x="341" y="200" width="131" height="25" rx="11" fill="black"/>
<rect x="341.5" y="200.5" width="130" height="24" rx="10.5" stroke="white" stroke-opacity="0.5"/>
<rect x="347" y="205" width="16" height="15" rx="5" fill="black"/>
<rect x="347.5" y="205.5" width="15" height="14" rx="4.5" stroke="white" stroke-opacity="0.3"/>
<rect x="477" y="200" width="132" height="25" rx="11" fill="black"/>
<rect x="477.5" y="200.5" width="131" height="24" rx="10.5" stroke="white" stroke-opacity="0.5"/>
<rect x="613" y="200" width="132" height="25" rx="11" fill="black"/>
<rect x="613.5" y="200.5" width="131" height="24" rx="10.5" stroke="white" stroke-opacity="0.5"/>
<rect x="749" y="200" width="132" height="25" rx="11" fill="black"/>
<rect x="749.5" y="200.5" width="131" height="24" rx="10.5" stroke="white" stroke-opacity="0.5"/>
<rect x="886" y="200" width="131" height="25" rx="11" fill="black"/>
<rect x="886.5" y="200.5" width="130" height="24" rx="10.5" stroke="white" stroke-opacity="0.5"/>
<rect x="1022" y="200" width="131" height="25" rx="11" fill="black"/>
<rect x="1022.5" y="200.5" width="130" height="24" rx="10.5" stroke="white" stroke-opacity="0.5"/>
<circle cx="142.5" cy="212.5" r="7.5" fill="black"/>
<circle cx="142.5" cy="212.5" r="7" stroke="white" stroke-opacity="0.3"/>
<circle cx="162.5" cy="212.5" r="7.5" fill="black"/>
<circle cx="162.5" cy="212.5" r="7" stroke="white" stroke-opacity="0.3"/>
<circle cx="182.5" cy="212.5" r="7.5" fill="black"/>
<circle cx="182.5" cy="212.5" r="7" stroke="white" stroke-opacity="0.3"/>
<line x1="117" y1="234.5" x2="1164" y2="234.5" stroke="white" stroke-opacity="0.3"/>
<rect x="54" y="252" width="1172" height="475" fill="url(#paint0_linear_2_48)"/>
<rect x="483" y="205" width="16" height="15" rx="5" fill="black"/>
<rect x="483.5" y="205.5" width="15" height="14" rx="4.5" stroke="white" stroke-opacity="0.3"/>
<rect x="620" y="205" width="16" height="15" rx="5" fill="black"/>
<rect x="620.5" y="205.5" width="15" height="14" rx="4.5" stroke="white" stroke-opacity="0.3"/>
<rect x="756" y="205" width="16" height="15" rx="5" fill="black"/>
<rect x="756.5" y="205.5" width="15" height="14" rx="4.5" stroke="white" stroke-opacity="0.3"/>
<rect x="892" y="205" width="16" height="15" rx="5" fill="black"/>
<rect x="892.5" y="205.5" width="15" height="14" rx="4.5" stroke="white" stroke-opacity="0.3"/>
<rect x="1028" y="205" width="16" height="15" rx="5" fill="black"/>
<rect x="1028.5" y="205.5" width="15" height="14" rx="4.5" stroke="white" stroke-opacity="0.3"/>
<path opacity="0.7" d="M235.097 216H232.966V208.727H235.224C235.918 208.727 236.511 208.872 237.004 209.161C237.498 209.449 237.877 209.864 238.14 210.403C238.403 210.943 238.534 211.591 238.534 212.346C238.534 213.108 238.399 213.763 238.129 214.31C237.862 214.854 237.471 215.272 236.957 215.563C236.446 215.854 235.826 216 235.097 216ZM233.63 215.403H235.058C235.683 215.403 236.206 215.28 236.627 215.034C237.049 214.788 237.365 214.436 237.575 213.979C237.786 213.522 237.891 212.978 237.891 212.346C237.889 211.719 237.785 211.179 237.579 210.727C237.375 210.274 237.072 209.928 236.67 209.686C236.27 209.445 235.775 209.324 235.185 209.324H233.63V215.403ZM246.106 212.364C246.106 213.121 245.971 213.781 245.701 214.342C245.431 214.9 245.06 215.334 244.586 215.641C244.115 215.947 243.573 216.099 242.96 216.099C242.347 216.099 241.803 215.947 241.33 215.641C240.859 215.334 240.488 214.9 240.218 214.342C239.951 213.781 239.817 213.121 239.817 212.364C239.817 211.606 239.951 210.948 240.218 210.389C240.488 209.828 240.86 209.395 241.333 209.089C241.807 208.782 242.349 208.628 242.96 208.628C243.573 208.628 244.115 208.782 244.586 209.089C245.06 209.395 245.431 209.828 245.701 210.389C245.971 210.948 246.106 211.606 246.106 212.364ZM245.46 212.364C245.46 211.713 245.351 211.155 245.133 210.691C244.915 210.225 244.618 209.868 244.242 209.622C243.865 209.376 243.438 209.253 242.96 209.253C242.484 209.253 242.058 209.376 241.681 209.622C241.305 209.868 241.007 210.223 240.786 210.688C240.569 211.152 240.46 211.71 240.46 212.364C240.46 213.015 240.569 213.572 240.786 214.036C241.004 214.5 241.301 214.857 241.678 215.105C242.054 215.351 242.481 215.474 242.96 215.474C243.438 215.474 243.865 215.351 244.242 215.105C244.62 214.859 244.919 214.504 245.137 214.04C245.354 213.573 245.462 213.015 245.46 212.364Z" fill="white" fill-opacity="0.7"/>
<path opacity="0.7" d="M368.966 216V208.727H371.313C371.829 208.727 372.26 208.821 372.606 209.008C372.954 209.192 373.215 209.449 373.391 209.778C373.568 210.105 373.657 210.48 373.657 210.904C373.657 211.328 373.568 211.702 373.391 212.026C373.215 212.351 372.955 212.604 372.609 212.786C372.264 212.969 371.835 213.06 371.324 213.06H369.325V212.452H371.306C371.685 212.452 372 212.39 372.251 212.264C372.504 212.139 372.692 211.96 372.815 211.728C372.941 211.496 373.004 211.221 373.004 210.904C373.004 210.587 372.941 210.31 372.815 210.073C372.69 209.834 372.5 209.649 372.247 209.519C371.996 209.389 371.679 209.324 371.295 209.324H369.63V216H368.966ZM372.173 212.719L373.962 216H373.195L371.423 212.719H372.173ZM375.275 216V208.727H379.493V209.324H375.939V212.062H379.27V212.658H375.939V215.403H379.564V216H375.275Z" fill="white" fill-opacity="0.7"/>
<path opacity="0.7" d="M504.966 208.727H505.733L508.371 215.062H508.435L511.074 208.727H511.841V216H511.216V210.13H511.159L508.705 216H508.102L505.648 210.13H505.591V216H504.966V208.727ZM514.439 208.727V216H513.775V208.727H514.439Z" fill="white" fill-opacity="0.7"/>
<path opacity="0.7" d="M640.966 216V208.727H645.174V209.324H641.63V212.062H644.844V212.658H641.63V216H640.966ZM645.928 216H645.232L647.877 208.727H648.588L651.233 216H650.537L648.257 209.59H648.208L645.928 216ZM646.428 213.212H650.036V213.809H646.428V213.212Z" fill="white" fill-opacity="0.7"/>
<path opacity="0.7" d="M781.915 210.545C781.875 210.141 781.696 209.819 781.379 209.58C781.061 209.34 780.662 209.221 780.182 209.221C779.843 209.221 779.545 209.279 779.287 209.395C779.031 209.511 778.83 209.672 778.683 209.878C778.539 210.081 778.467 210.313 778.467 210.574C778.467 210.766 778.508 210.934 778.591 211.078C778.674 211.223 778.785 211.347 778.925 211.451C779.067 211.553 779.223 211.64 779.393 211.714C779.566 211.787 779.74 211.849 779.915 211.898L780.683 212.119C780.915 212.183 781.147 212.264 781.379 212.364C781.611 212.463 781.822 212.589 782.014 212.74C782.208 212.889 782.363 213.073 782.479 213.29C782.598 213.506 782.657 213.765 782.657 214.068C782.657 214.456 782.556 214.806 782.355 215.116C782.154 215.426 781.865 215.672 781.489 215.854C781.112 216.034 780.661 216.124 780.136 216.124C779.641 216.124 779.211 216.043 778.847 215.879C778.482 215.714 778.196 215.485 777.987 215.194C777.779 214.903 777.662 214.565 777.636 214.182H778.317C778.341 214.468 778.436 214.711 778.602 214.91C778.767 215.109 778.983 215.26 779.248 215.364C779.513 215.466 779.809 215.517 780.136 215.517C780.498 215.517 780.82 215.457 781.102 215.336C781.386 215.213 781.608 215.042 781.769 214.825C781.933 214.604 782.014 214.349 782.014 214.058C782.014 213.811 781.95 213.605 781.822 213.44C781.695 213.272 781.516 213.131 781.286 213.017C781.059 212.903 780.795 212.803 780.494 212.715L779.624 212.46C779.054 212.289 778.611 212.054 778.296 211.753C777.981 211.452 777.824 211.069 777.824 210.602C777.824 210.212 777.928 209.868 778.136 209.572C778.347 209.274 778.631 209.042 778.989 208.876C779.348 208.708 779.752 208.624 780.2 208.624C780.652 208.624 781.052 208.707 781.4 208.873C781.748 209.039 782.024 209.267 782.227 209.558C782.433 209.847 782.543 210.176 782.558 210.545H781.915ZM790.217 212.364C790.217 213.121 790.082 213.781 789.812 214.342C789.543 214.9 789.171 215.334 788.697 215.641C788.226 215.947 787.684 216.099 787.071 216.099C786.458 216.099 785.915 215.947 785.441 215.641C784.97 215.334 784.599 214.9 784.33 214.342C784.062 213.781 783.928 213.121 783.928 212.364C783.928 211.606 784.062 210.948 784.33 210.389C784.599 209.828 784.971 209.395 785.445 209.089C785.918 208.782 786.46 208.628 787.071 208.628C787.684 208.628 788.226 208.782 788.697 209.089C789.171 209.395 789.543 209.828 789.812 210.389C790.082 210.948 790.217 211.606 790.217 212.364ZM789.571 212.364C789.571 211.713 789.462 211.155 789.244 210.691C789.027 210.225 788.729 209.868 788.353 209.622C787.977 209.376 787.549 209.253 787.071 209.253C786.595 209.253 786.169 209.376 785.793 209.622C785.416 209.868 785.118 210.223 784.898 210.688C784.68 211.152 784.571 211.71 784.571 212.364C784.571 213.015 784.68 213.572 784.898 214.036C785.116 214.5 785.413 214.857 785.789 215.105C786.165 215.351 786.593 215.474 787.071 215.474C787.549 215.474 787.977 215.351 788.353 215.105C788.732 214.859 789.03 214.504 789.248 214.04C789.466 213.573 789.573 213.015 789.571 212.364ZM791.823 216V208.727H792.487V215.403H795.953V216H791.823Z" fill="white" fill-opacity="0.7"/>
<path opacity="0.7" d="M913.966 216V208.727H914.63V215.403H918.096V216H913.966ZM920.061 216H919.365L922.01 208.727H922.72L925.366 216H924.67L922.39 209.59H922.34L920.061 216ZM920.561 213.212H924.169V213.809H920.561V213.212Z" fill="white" fill-opacity="0.7"/>
<path opacity="0.7" d="M1053.91 210.545C1053.87 210.141 1053.7 209.819 1053.38 209.58C1053.06 209.34 1052.66 209.221 1052.18 209.221C1051.84 209.221 1051.54 209.279 1051.29 209.395C1051.03 209.511 1050.83 209.672 1050.68 209.878C1050.54 210.081 1050.47 210.313 1050.47 210.574C1050.47 210.766 1050.51 210.934 1050.59 211.078C1050.67 211.223 1050.79 211.347 1050.92 211.451C1051.07 211.553 1051.22 211.64 1051.39 211.714C1051.57 211.787 1051.74 211.849 1051.92 211.898L1052.68 212.119C1052.91 212.183 1053.15 212.264 1053.38 212.364C1053.61 212.463 1053.82 212.589 1054.01 212.74C1054.21 212.889 1054.36 213.073 1054.48 213.29C1054.6 213.506 1054.66 213.765 1054.66 214.068C1054.66 214.456 1054.56 214.806 1054.36 215.116C1054.15 215.426 1053.87 215.672 1053.49 215.854C1053.11 216.034 1052.66 216.124 1052.14 216.124C1051.64 216.124 1051.21 216.043 1050.85 215.879C1050.48 215.714 1050.2 215.485 1049.99 215.194C1049.78 214.903 1049.66 214.565 1049.64 214.182H1050.32C1050.34 214.468 1050.44 214.711 1050.6 214.91C1050.77 215.109 1050.98 215.26 1051.25 215.364C1051.51 215.466 1051.81 215.517 1052.14 215.517C1052.5 215.517 1052.82 215.457 1053.1 215.336C1053.39 215.213 1053.61 215.042 1053.77 214.825C1053.93 214.604 1054.01 214.349 1054.01 214.058C1054.01 213.811 1053.95 213.605 1053.82 213.44C1053.69 213.272 1053.52 213.131 1053.29 213.017C1053.06 212.903 1052.79 212.803 1052.49 212.715L1051.62 212.46C1051.05 212.289 1050.61 212.054 1050.3 211.753C1049.98 211.452 1049.82 211.069 1049.82 210.602C1049.82 210.212 1049.93 209.868 1050.14 209.572C1050.35 209.274 1050.63 209.042 1050.99 208.876C1051.35 208.708 1051.75 208.624 1052.2 208.624C1052.65 208.624 1053.05 208.707 1053.4 208.873C1053.75 209.039 1054.02 209.267 1054.23 209.558C1054.43 209.847 1054.54 210.176 1054.56 210.545H1053.91ZM1056.92 208.727V216H1056.25V208.727H1056.92Z" fill="white" fill-opacity="0.7"/>
<line x1="270.5" y1="212" x2="270.5" y2="134" stroke="white" stroke-opacity="0.3"/>
<line x1="406.5" y1="212" x2="406.5" y2="134" stroke="white" stroke-opacity="0.3"/>
<line x1="678.5" y1="212" x2="678.5" y2="134" stroke="white" stroke-opacity="0.3"/>
<line x1="814.5" y1="212" x2="814.5" y2="134" stroke="white" stroke-opacity="0.3"/>
<line x1="951.5" y1="212" x2="951.5" y2="134" stroke="white" stroke-opacity="0.3"/>
<line x1="1087.5" y1="212" x2="1087.5" y2="134" stroke="white" stroke-opacity="0.3"/>
<line x1="542.5" y1="212" x2="542.5" y2="134" stroke="white" stroke-opacity="0.3"/>
<path d="M263.674 125.261C263.212 125.261 262.788 125.148 262.401 124.92C262.015 124.689 261.708 124.383 261.481 124C261.254 123.614 261.14 123.189 261.14 122.727C261.14 122.261 261.254 121.837 261.481 121.455C261.708 121.068 262.015 120.759 262.401 120.528C262.788 120.297 263.212 120.182 263.674 120.182H264.924V118.17H263.674C263.212 118.17 262.788 118.057 262.401 117.83C262.015 117.602 261.708 117.297 261.481 116.915C261.254 116.528 261.14 116.102 261.14 115.636C261.14 115.17 261.254 114.746 261.481 114.364C261.708 113.981 262.015 113.676 262.401 113.449C262.788 113.218 263.212 113.102 263.674 113.102C264.14 113.102 264.564 113.218 264.947 113.449C265.333 113.676 265.64 113.981 265.867 114.364C266.098 114.746 266.214 115.17 266.214 115.636V116.875H268.231V115.636C268.231 115.17 268.344 114.746 268.572 114.364C268.799 113.981 269.104 113.676 269.487 113.449C269.873 113.218 270.299 113.102 270.765 113.102C271.231 113.102 271.655 113.218 272.038 113.449C272.42 113.676 272.725 113.981 272.952 114.364C273.18 114.746 273.293 115.17 273.293 115.636C273.293 116.102 273.18 116.528 272.952 116.915C272.725 117.297 272.42 117.602 272.038 117.83C271.655 118.057 271.231 118.17 270.765 118.17H269.521V120.182H270.765C271.231 120.182 271.655 120.297 272.038 120.528C272.42 120.759 272.725 121.068 272.952 121.455C273.18 121.837 273.293 122.261 273.293 122.727C273.293 123.189 273.18 123.614 272.952 124C272.725 124.383 272.42 124.689 272.038 124.92C271.655 125.148 271.231 125.261 270.765 125.261C270.299 125.261 269.873 125.148 269.487 124.92C269.104 124.689 268.799 124.383 268.572 124C268.344 123.614 268.231 123.189 268.231 122.727V121.477H266.214V122.727C266.214 123.189 266.098 123.614 265.867 124C265.64 124.383 265.333 124.689 264.947 124.92C264.564 125.148 264.14 125.261 263.674 125.261ZM263.674 123.966C263.905 123.966 264.113 123.911 264.299 123.801C264.488 123.691 264.64 123.542 264.754 123.352C264.867 123.163 264.924 122.955 264.924 122.727V121.477H263.674C263.447 121.477 263.238 121.534 263.049 121.648C262.86 121.758 262.708 121.907 262.594 122.097C262.485 122.286 262.43 122.496 262.43 122.727C262.43 122.955 262.485 123.163 262.594 123.352C262.708 123.542 262.86 123.691 263.049 123.801C263.238 123.911 263.447 123.966 263.674 123.966ZM263.674 116.875H264.924V115.636C264.924 115.405 264.867 115.197 264.754 115.011C264.64 114.822 264.488 114.672 264.299 114.562C264.113 114.453 263.905 114.398 263.674 114.398C263.447 114.398 263.238 114.453 263.049 114.562C262.86 114.672 262.708 114.822 262.594 115.011C262.485 115.197 262.43 115.405 262.43 115.636C262.43 115.867 262.485 116.078 262.594 116.267C262.708 116.453 262.86 116.6 263.049 116.71C263.238 116.82 263.447 116.875 263.674 116.875ZM269.521 116.875H270.765C270.996 116.875 271.204 116.82 271.39 116.71C271.576 116.6 271.723 116.453 271.833 116.267C271.947 116.078 272.004 115.867 272.004 115.636C272.004 115.405 271.947 115.197 271.833 115.011C271.723 114.822 271.576 114.672 271.39 114.562C271.204 114.453 270.996 114.398 270.765 114.398C270.534 114.398 270.324 114.453 270.134 114.562C269.945 114.672 269.795 114.822 269.685 115.011C269.576 115.197 269.521 115.405 269.521 115.636V116.875ZM270.765 123.966C270.996 123.966 271.204 123.911 271.39 123.801C271.576 123.691 271.723 123.542 271.833 123.352C271.947 123.163 272.004 122.955 272.004 122.727C272.004 122.496 271.947 122.286 271.833 122.097C271.723 121.907 271.576 121.758 271.39 121.648C271.204 121.534 270.996 121.477 270.765 121.477H269.521V122.727C269.521 122.955 269.576 123.163 269.685 123.352C269.795 123.542 269.945 123.691 270.134 123.801C270.324 123.911 270.534 123.966 270.765 123.966ZM266.214 120.182H268.231V118.17H266.214V120.182ZM280.667 113.364V125H278.906V115.125H278.837L276.053 116.943V115.261L278.957 113.364H280.667Z" fill="white" fill-opacity="0.8"/>
<path d="M398.549 125.261C398.087 125.261 397.663 125.148 397.276 124.92C396.89 124.689 396.583 124.383 396.356 124C396.129 123.614 396.015 123.189 396.015 122.727C396.015 122.261 396.129 121.837 396.356 121.455C396.583 121.068 396.89 120.759 397.276 120.528C397.663 120.297 398.087 120.182 398.549 120.182H399.799V118.17H398.549C398.087 118.17 397.663 118.057 397.276 117.83C396.89 117.602 396.583 117.297 396.356 116.915C396.129 116.528 396.015 116.102 396.015 115.636C396.015 115.17 396.129 114.746 396.356 114.364C396.583 113.981 396.89 113.676 397.276 113.449C397.663 113.218 398.087 113.102 398.549 113.102C399.015 113.102 399.439 113.218 399.822 113.449C400.208 113.676 400.515 113.981 400.742 114.364C400.973 114.746 401.089 115.17 401.089 115.636V116.875H403.106V115.636C403.106 115.17 403.219 114.746 403.447 114.364C403.674 113.981 403.979 113.676 404.362 113.449C404.748 113.218 405.174 113.102 405.64 113.102C406.106 113.102 406.53 113.218 406.913 113.449C407.295 113.676 407.6 113.981 407.827 114.364C408.055 114.746 408.168 115.17 408.168 115.636C408.168 116.102 408.055 116.528 407.827 116.915C407.6 117.297 407.295 117.602 406.913 117.83C406.53 118.057 406.106 118.17 405.64 118.17H404.396V120.182H405.64C406.106 120.182 406.53 120.297 406.913 120.528C407.295 120.759 407.6 121.068 407.827 121.455C408.055 121.837 408.168 122.261 408.168 122.727C408.168 123.189 408.055 123.614 407.827 124C407.6 124.383 407.295 124.689 406.913 124.92C406.53 125.148 406.106 125.261 405.64 125.261C405.174 125.261 404.748 125.148 404.362 124.92C403.979 124.689 403.674 124.383 403.447 124C403.219 123.614 403.106 123.189 403.106 122.727V121.477H401.089V122.727C401.089 123.189 400.973 123.614 400.742 124C400.515 124.383 400.208 124.689 399.822 124.92C399.439 125.148 399.015 125.261 398.549 125.261ZM398.549 123.966C398.78 123.966 398.988 123.911 399.174 123.801C399.363 123.691 399.515 123.542 399.629 123.352C399.742 123.163 399.799 122.955 399.799 122.727V121.477H398.549C398.322 121.477 398.113 121.534 397.924 121.648C397.735 121.758 397.583 121.907 397.469 122.097C397.36 122.286 397.305 122.496 397.305 122.727C397.305 122.955 397.36 123.163 397.469 123.352C397.583 123.542 397.735 123.691 397.924 123.801C398.113 123.911 398.322 123.966 398.549 123.966ZM398.549 116.875H399.799V115.636C399.799 115.405 399.742 115.197 399.629 115.011C399.515 114.822 399.363 114.672 399.174 114.562C398.988 114.453 398.78 114.398 398.549 114.398C398.322 114.398 398.113 114.453 397.924 114.562C397.735 114.672 397.583 114.822 397.469 115.011C397.36 115.197 397.305 115.405 397.305 115.636C397.305 115.867 397.36 116.078 397.469 116.267C397.583 116.453 397.735 116.6 397.924 116.71C398.113 116.82 398.322 116.875 398.549 116.875ZM404.396 116.875H405.64C405.871 116.875 406.079 116.82 406.265 116.71C406.451 116.6 406.598 116.453 406.708 116.267C406.822 116.078 406.879 115.867 406.879 115.636C406.879 115.405 406.822 115.197 406.708 115.011C406.598 114.822 406.451 114.672 406.265 114.562C406.079 114.453 405.871 114.398 405.64 114.398C405.409 114.398 405.199 114.453 405.009 114.562C404.82 114.672 404.67 114.822 404.56 115.011C404.451 115.197 404.396 115.405 404.396 115.636V116.875ZM405.64 123.966C405.871 123.966 406.079 123.911 406.265 123.801C406.451 123.691 406.598 123.542 406.708 123.352C406.822 123.163 406.879 122.955 406.879 122.727C406.879 122.496 406.822 122.286 406.708 122.097C406.598 121.907 406.451 121.758 406.265 121.648C406.079 121.534 405.871 121.477 405.64 121.477H404.396V122.727C404.396 122.955 404.451 123.163 404.56 123.352C404.67 123.542 404.82 123.691 405.009 123.801C405.199 123.911 405.409 123.966 405.64 123.966ZM401.089 120.182H403.106V118.17H401.089V120.182ZM411.127 125V123.727L415.065 119.648C415.485 119.205 415.832 118.816 416.104 118.483C416.381 118.146 416.587 117.826 416.724 117.523C416.86 117.22 416.928 116.898 416.928 116.557C416.928 116.17 416.837 115.837 416.656 115.557C416.474 115.273 416.226 115.055 415.911 114.903C415.597 114.748 415.243 114.67 414.849 114.67C414.432 114.67 414.068 114.756 413.758 114.926C413.447 115.097 413.209 115.337 413.042 115.648C412.875 115.958 412.792 116.322 412.792 116.739H411.116C411.116 116.03 411.279 115.411 411.604 114.881C411.93 114.35 412.377 113.939 412.945 113.648C413.513 113.352 414.159 113.205 414.883 113.205C415.614 113.205 416.258 113.35 416.815 113.642C417.375 113.93 417.813 114.324 418.127 114.824C418.442 115.32 418.599 115.881 418.599 116.506C418.599 116.938 418.517 117.36 418.354 117.773C418.195 118.186 417.917 118.646 417.519 119.153C417.121 119.657 416.568 120.269 415.86 120.989L413.548 123.409V123.494H418.786V125H411.127Z" fill="white" fill-opacity="0.8"/>
<path d="M534.799 125.261C534.337 125.261 533.913 125.148 533.526 124.92C533.14 124.689 532.833 124.383 532.606 124C532.379 123.614 532.265 123.189 532.265 122.727C532.265 122.261 532.379 121.837 532.606 121.455C532.833 121.068 533.14 120.759 533.526 120.528C533.913 120.297 534.337 120.182 534.799 120.182H536.049V118.17H534.799C534.337 118.17 533.913 118.057 533.526 117.83C533.14 117.602 532.833 117.297 532.606 116.915C532.379 116.528 532.265 116.102 532.265 115.636C532.265 115.17 532.379 114.746 532.606 114.364C532.833 113.981 533.14 113.676 533.526 113.449C533.913 113.218 534.337 113.102 534.799 113.102C535.265 113.102 535.689 113.218 536.072 113.449C536.458 113.676 536.765 113.981 536.992 114.364C537.223 114.746 537.339 115.17 537.339 115.636V116.875H539.356V115.636C539.356 115.17 539.469 114.746 539.697 114.364C539.924 113.981 540.229 113.676 540.612 113.449C540.998 113.218 541.424 113.102 541.89 113.102C542.356 113.102 542.78 113.218 543.163 113.449C543.545 113.676 543.85 113.981 544.077 114.364C544.305 114.746 544.418 115.17 544.418 115.636C544.418 116.102 544.305 116.528 544.077 116.915C543.85 117.297 543.545 117.602 543.163 117.83C542.78 118.057 542.356 118.17 541.89 118.17H540.646V120.182H541.89C542.356 120.182 542.78 120.297 543.163 120.528C543.545 120.759 543.85 121.068 544.077 121.455C544.305 121.837 544.418 122.261 544.418 122.727C544.418 123.189 544.305 123.614 544.077 124C543.85 124.383 543.545 124.689 543.163 124.92C542.78 125.148 542.356 125.261 541.89 125.261C541.424 125.261 540.998 125.148 540.612 124.92C540.229 124.689 539.924 124.383 539.697 124C539.469 123.614 539.356 123.189 539.356 122.727V121.477H537.339V122.727C537.339 123.189 537.223 123.614 536.992 124C536.765 124.383 536.458 124.689 536.072 124.92C535.689 125.148 535.265 125.261 534.799 125.261ZM534.799 123.966C535.03 123.966 535.238 123.911 535.424 123.801C535.613 123.691 535.765 123.542 535.879 123.352C535.992 123.163 536.049 122.955 536.049 122.727V121.477H534.799C534.572 121.477 534.363 121.534 534.174 121.648C533.985 121.758 533.833 121.907 533.719 122.097C533.61 122.286 533.555 122.496 533.555 122.727C533.555 122.955 533.61 123.163 533.719 123.352C533.833 123.542 533.985 123.691 534.174 123.801C534.363 123.911 534.572 123.966 534.799 123.966ZM534.799 116.875H536.049V115.636C536.049 115.405 535.992 115.197 535.879 115.011C535.765 114.822 535.613 114.672 535.424 114.562C535.238 114.453 535.03 114.398 534.799 114.398C534.572 114.398 534.363 114.453 534.174 114.562C533.985 114.672 533.833 114.822 533.719 115.011C533.61 115.197 533.555 115.405 533.555 115.636C533.555 115.867 533.61 116.078 533.719 116.267C533.833 116.453 533.985 116.6 534.174 116.71C534.363 116.82 534.572 116.875 534.799 116.875ZM540.646 116.875H541.89C542.121 116.875 542.329 116.82 542.515 116.71C542.701 116.6 542.848 116.453 542.958 116.267C543.072 116.078 543.129 115.867 543.129 115.636C543.129 115.405 543.072 115.197 542.958 115.011C542.848 114.822 542.701 114.672 542.515 114.562C542.329 114.453 542.121 114.398 541.89 114.398C541.659 114.398 541.449 114.453 541.259 114.562C541.07 114.672 540.92 114.822 540.81 115.011C540.701 115.197 540.646 115.405 540.646 115.636V116.875ZM541.89 123.966C542.121 123.966 542.329 123.911 542.515 123.801C542.701 123.691 542.848 123.542 542.958 123.352C543.072 123.163 543.129 122.955 543.129 122.727C543.129 122.496 543.072 122.286 542.958 122.097C542.848 121.907 542.701 121.758 542.515 121.648C542.329 121.534 542.121 121.477 541.89 121.477H540.646V122.727C540.646 122.955 540.701 123.163 540.81 123.352C540.92 123.542 541.07 123.691 541.259 123.801C541.449 123.911 541.659 123.966 541.89 123.966ZM537.339 120.182H539.356V118.17H537.339V120.182ZM551.428 125.159C550.648 125.159 549.951 125.025 549.337 124.756C548.728 124.487 548.245 124.114 547.888 123.636C547.536 123.155 547.347 122.598 547.32 121.966H549.104C549.127 122.311 549.243 122.61 549.451 122.864C549.663 123.114 549.94 123.307 550.281 123.443C550.621 123.58 551 123.648 551.417 123.648C551.875 123.648 552.281 123.568 552.633 123.409C552.989 123.25 553.267 123.028 553.468 122.744C553.669 122.456 553.769 122.125 553.769 121.75C553.769 121.36 553.669 121.017 553.468 120.722C553.271 120.422 552.981 120.187 552.599 120.017C552.22 119.847 551.762 119.761 551.224 119.761H550.241V118.33H551.224C551.656 118.33 552.034 118.252 552.36 118.097C552.69 117.941 552.947 117.725 553.133 117.449C553.318 117.169 553.411 116.841 553.411 116.466C553.411 116.106 553.33 115.794 553.167 115.528C553.008 115.259 552.781 115.049 552.485 114.898C552.193 114.746 551.849 114.67 551.451 114.67C551.072 114.67 550.718 114.741 550.388 114.881C550.063 115.017 549.798 115.214 549.593 115.472C549.388 115.725 549.279 116.03 549.263 116.386H547.565C547.584 115.758 547.769 115.205 548.121 114.727C548.478 114.25 548.947 113.877 549.531 113.608C550.114 113.339 550.762 113.205 551.474 113.205C552.22 113.205 552.864 113.35 553.406 113.642C553.951 113.93 554.371 114.314 554.667 114.795C554.966 115.277 555.114 115.803 555.11 116.375C555.114 117.027 554.932 117.58 554.565 118.034C554.201 118.489 553.716 118.794 553.11 118.949V119.04C553.883 119.157 554.481 119.464 554.906 119.96C555.334 120.456 555.546 121.072 555.542 121.807C555.546 122.447 555.368 123.021 555.008 123.528C554.652 124.036 554.165 124.436 553.548 124.727C552.93 125.015 552.224 125.159 551.428 125.159Z" fill="white" fill-opacity="0.8"/>
<path d="M670.721 125.261C670.259 125.261 669.835 125.148 669.448 124.92C669.062 124.689 668.755 124.383 668.528 124C668.3 123.614 668.187 123.189 668.187 122.727C668.187 122.261 668.3 121.837 668.528 121.455C668.755 121.068 669.062 120.759 669.448 120.528C669.835 120.297 670.259 120.182 670.721 120.182H671.971V118.17H670.721C670.259 118.17 669.835 118.057 669.448 117.83C669.062 117.602 668.755 117.297 668.528 116.915C668.3 116.528 668.187 116.102 668.187 115.636C668.187 115.17 668.3 114.746 668.528 114.364C668.755 113.981 669.062 113.676 669.448 113.449C669.835 113.218 670.259 113.102 670.721 113.102C671.187 113.102 671.611 113.218 671.994 113.449C672.38 113.676 672.687 113.981 672.914 114.364C673.145 114.746 673.261 115.17 673.261 115.636V116.875H675.278V115.636C675.278 115.17 675.391 114.746 675.619 114.364C675.846 113.981 676.151 113.676 676.533 113.449C676.92 113.218 677.346 113.102 677.812 113.102C678.278 113.102 678.702 113.218 679.085 113.449C679.467 113.676 679.772 113.981 679.999 114.364C680.227 114.746 680.34 115.17 680.34 115.636C680.34 116.102 680.227 116.528 679.999 116.915C679.772 117.297 679.467 117.602 679.085 117.83C678.702 118.057 678.278 118.17 677.812 118.17H676.567V120.182H677.812C678.278 120.182 678.702 120.297 679.085 120.528C679.467 120.759 679.772 121.068 679.999 121.455C680.227 121.837 680.34 122.261 680.34 122.727C680.34 123.189 680.227 123.614 679.999 124C679.772 124.383 679.467 124.689 679.085 124.92C678.702 125.148 678.278 125.261 677.812 125.261C677.346 125.261 676.92 125.148 676.533 124.92C676.151 124.689 675.846 124.383 675.619 124C675.391 123.614 675.278 123.189 675.278 122.727V121.477H673.261V122.727C673.261 123.189 673.145 123.614 672.914 124C672.687 124.383 672.38 124.689 671.994 124.92C671.611 125.148 671.187 125.261 670.721 125.261ZM670.721 123.966C670.952 123.966 671.16 123.911 671.346 123.801C671.535 123.691 671.687 123.542 671.8 123.352C671.914 123.163 671.971 122.955 671.971 122.727V121.477H670.721C670.494 121.477 670.285 121.534 670.096 121.648C669.906 121.758 669.755 121.907 669.641 122.097C669.531 122.286 669.477 122.496 669.477 122.727C669.477 122.955 669.531 123.163 669.641 123.352C669.755 123.542 669.906 123.691 670.096 123.801C670.285 123.911 670.494 123.966 670.721 123.966ZM670.721 116.875H671.971V115.636C671.971 115.405 671.914 115.197 671.8 115.011C671.687 114.822 671.535 114.672 671.346 114.562C671.16 114.453 670.952 114.398 670.721 114.398C670.494 114.398 670.285 114.453 670.096 114.562C669.906 114.672 669.755 114.822 669.641 115.011C669.531 115.197 669.477 115.405 669.477 115.636C669.477 115.867 669.531 116.078 669.641 116.267C669.755 116.453 669.906 116.6 670.096 116.71C670.285 116.82 670.494 116.875 670.721 116.875ZM676.567 116.875H677.812C678.043 116.875 678.251 116.82 678.437 116.71C678.622 116.6 678.77 116.453 678.88 116.267C678.994 116.078 679.05 115.867 679.05 115.636C679.05 115.405 678.994 115.197 678.88 115.011C678.77 114.822 678.622 114.672 678.437 114.562C678.251 114.453 678.043 114.398 677.812 114.398C677.581 114.398 677.371 114.453 677.181 114.562C676.992 114.672 676.842 114.822 676.732 115.011C676.622 115.197 676.567 115.405 676.567 115.636V116.875ZM677.812 123.966C678.043 123.966 678.251 123.911 678.437 123.801C678.622 123.691 678.77 123.542 678.88 123.352C678.994 123.163 679.05 122.955 679.05 122.727C679.05 122.496 678.994 122.286 678.88 122.097C678.77 121.907 678.622 121.758 678.437 121.648C678.251 121.534 678.043 121.477 677.812 121.477H676.567V122.727C676.567 122.955 676.622 123.163 676.732 123.352C676.842 123.542 676.992 123.691 677.181 123.801C677.371 123.911 677.581 123.966 677.812 123.966ZM673.261 120.182H675.278V118.17H673.261V120.182ZM683.055 122.727V121.307L688.083 113.364H689.202V115.455H688.492L684.896 121.148V121.239H691.788V122.727H683.055ZM688.572 125V122.295L688.583 121.648V113.364H690.248V125H688.572Z" fill="white" fill-opacity="0.8"/>
<path d="M806.494 125.261C806.032 125.261 805.608 125.148 805.222 124.92C804.835 124.689 804.528 124.383 804.301 124C804.074 123.614 803.96 123.189 803.96 122.727C803.96 122.261 804.074 121.837 804.301 121.455C804.528 121.068 804.835 120.759 805.222 120.528C805.608 120.297 806.032 120.182 806.494 120.182H807.744V118.17H806.494C806.032 118.17 805.608 118.057 805.222 117.83C804.835 117.602 804.528 117.297 804.301 116.915C804.074 116.528 803.96 116.102 803.96 115.636C803.96 115.17 804.074 114.746 804.301 114.364C804.528 113.981 804.835 113.676 805.222 113.449C805.608 113.218 806.032 113.102 806.494 113.102C806.96 113.102 807.384 113.218 807.767 113.449C808.153 113.676 808.46 113.981 808.688 114.364C808.919 114.746 809.034 115.17 809.034 115.636V116.875H811.051V115.636C811.051 115.17 811.165 114.746 811.392 114.364C811.619 113.981 811.924 113.676 812.307 113.449C812.693 113.218 813.119 113.102 813.585 113.102C814.051 113.102 814.475 113.218 814.858 113.449C815.241 113.676 815.545 113.981 815.773 114.364C816 114.746 816.114 115.17 816.114 115.636C816.114 116.102 816 116.528 815.773 116.915C815.545 117.297 815.241 117.602 814.858 117.83C814.475 118.057 814.051 118.17 813.585 118.17H812.341V120.182H813.585C814.051 120.182 814.475 120.297 814.858 120.528C815.241 120.759 815.545 121.068 815.773 121.455C816 121.837 816.114 122.261 816.114 122.727C816.114 123.189 816 123.614 815.773 124C815.545 124.383 815.241 124.689 814.858 124.92C814.475 125.148 814.051 125.261 813.585 125.261C813.119 125.261 812.693 125.148 812.307 124.92C811.924 124.689 811.619 124.383 811.392 124C811.165 123.614 811.051 123.189 811.051 122.727V121.477H809.034V122.727C809.034 123.189 808.919 123.614 808.688 124C808.46 124.383 808.153 124.689 807.767 124.92C807.384 125.148 806.96 125.261 806.494 125.261ZM806.494 123.966C806.725 123.966 806.934 123.911 807.119 123.801C807.309 123.691 807.46 123.542 807.574 123.352C807.688 123.163 807.744 122.955 807.744 122.727V121.477H806.494C806.267 121.477 806.059 121.534 805.869 121.648C805.68 121.758 805.528 121.907 805.415 122.097C805.305 122.286 805.25 122.496 805.25 122.727C805.25 122.955 805.305 123.163 805.415 123.352C805.528 123.542 805.68 123.691 805.869 123.801C806.059 123.911 806.267 123.966 806.494 123.966ZM806.494 116.875H807.744V115.636C807.744 115.405 807.688 115.197 807.574 115.011C807.46 114.822 807.309 114.672 807.119 114.562C806.934 114.453 806.725 114.398 806.494 114.398C806.267 114.398 806.059 114.453 805.869 114.562C805.68 114.672 805.528 114.822 805.415 115.011C805.305 115.197 805.25 115.405 805.25 115.636C805.25 115.867 805.305 116.078 805.415 116.267C805.528 116.453 805.68 116.6 805.869 116.71C806.059 116.82 806.267 116.875 806.494 116.875ZM812.341 116.875H813.585C813.816 116.875 814.025 116.82 814.21 116.71C814.396 116.6 814.544 116.453 814.653 116.267C814.767 116.078 814.824 115.867 814.824 115.636C814.824 115.405 814.767 115.197 814.653 115.011C814.544 114.822 814.396 114.672 814.21 114.562C814.025 114.453 813.816 114.398 813.585 114.398C813.354 114.398 813.144 114.453 812.955 114.562C812.765 114.672 812.616 114.822 812.506 115.011C812.396 115.197 812.341 115.405 812.341 115.636V116.875ZM813.585 123.966C813.816 123.966 814.025 123.911 814.21 123.801C814.396 123.691 814.544 123.542 814.653 123.352C814.767 123.163 814.824 122.955 814.824 122.727C814.824 122.496 814.767 122.286 814.653 122.097C814.544 121.907 814.396 121.758 814.21 121.648C814.025 121.534 813.816 121.477 813.585 121.477H812.341V122.727C812.341 122.955 812.396 123.163 812.506 123.352C812.616 123.542 812.765 123.691 812.955 123.801C813.144 123.911 813.354 123.966 813.585 123.966ZM809.034 120.182H811.051V118.17H809.034V120.182ZM822.913 125.159C822.201 125.159 821.561 125.023 820.993 124.75C820.429 124.473 819.978 124.095 819.641 123.614C819.304 123.133 819.124 122.583 819.101 121.966H820.805C820.847 122.466 821.069 122.877 821.47 123.199C821.872 123.521 822.353 123.682 822.913 123.682C823.36 123.682 823.756 123.58 824.101 123.375C824.449 123.167 824.722 122.881 824.919 122.517C825.12 122.153 825.22 121.739 825.22 121.273C825.22 120.799 825.118 120.377 824.913 120.006C824.709 119.634 824.427 119.343 824.067 119.131C823.711 118.919 823.302 118.811 822.839 118.807C822.487 118.807 822.133 118.867 821.777 118.989C821.421 119.11 821.133 119.269 820.913 119.466L819.305 119.227L819.959 113.364H826.357V114.869H821.419L821.05 118.125H821.118C821.345 117.905 821.646 117.722 822.021 117.574C822.4 117.426 822.805 117.352 823.237 117.352C823.946 117.352 824.576 117.521 825.129 117.858C825.686 118.195 826.124 118.655 826.442 119.239C826.764 119.818 826.923 120.485 826.919 121.239C826.923 121.992 826.752 122.665 826.408 123.256C826.067 123.847 825.593 124.312 824.987 124.653C824.385 124.991 823.694 125.159 822.913 125.159Z" fill="white" fill-opacity="0.8"/>
<path d="M943.369 125.261C942.907 125.261 942.483 125.148 942.097 124.92C941.71 124.689 941.403 124.383 941.176 124C940.949 123.614 940.835 123.189 940.835 122.727C940.835 122.261 940.949 121.837 941.176 121.455C941.403 121.068 941.71 120.759 942.097 120.528C942.483 120.297 942.907 120.182 943.369 120.182H944.619V118.17H943.369C942.907 118.17 942.483 118.057 942.097 117.83C941.71 117.602 941.403 117.297 941.176 116.915C940.949 116.528 940.835 116.102 940.835 115.636C940.835 115.17 940.949 114.746 941.176 114.364C941.403 113.981 941.71 113.676 942.097 113.449C942.483 113.218 942.907 113.102 943.369 113.102C943.835 113.102 944.259 113.218 944.642 113.449C945.028 113.676 945.335 113.981 945.562 114.364C945.794 114.746 945.909 115.17 945.909 115.636V116.875H947.926V115.636C947.926 115.17 948.04 114.746 948.267 114.364C948.494 113.981 948.799 113.676 949.182 113.449C949.568 113.218 949.994 113.102 950.46 113.102C950.926 113.102 951.35 113.218 951.733 113.449C952.116 113.676 952.42 113.981 952.648 114.364C952.875 114.746 952.989 115.17 952.989 115.636C952.989 116.102 952.875 116.528 952.648 116.915C952.42 117.297 952.116 117.602 951.733 117.83C951.35 118.057 950.926 118.17 950.46 118.17H949.216V120.182H950.46C950.926 120.182 951.35 120.297 951.733 120.528C952.116 120.759 952.42 121.068 952.648 121.455C952.875 121.837 952.989 122.261 952.989 122.727C952.989 123.189 952.875 123.614 952.648 124C952.42 124.383 952.116 124.689 951.733 124.92C951.35 125.148 950.926 125.261 950.46 125.261C949.994 125.261 949.568 125.148 949.182 124.92C948.799 124.689 948.494 124.383 948.267 124C948.04 123.614 947.926 123.189 947.926 122.727V121.477H945.909V122.727C945.909 123.189 945.794 123.614 945.562 124C945.335 124.383 945.028 124.689 944.642 124.92C944.259 125.148 943.835 125.261 943.369 125.261ZM943.369 123.966C943.6 123.966 943.809 123.911 943.994 123.801C944.184 123.691 944.335 123.542 944.449 123.352C944.563 123.163 944.619 122.955 944.619 122.727V121.477H943.369C943.142 121.477 942.934 121.534 942.744 121.648C942.555 121.758 942.403 121.907 942.29 122.097C942.18 122.286 942.125 122.496 942.125 122.727C942.125 122.955 942.18 123.163 942.29 123.352C942.403 123.542 942.555 123.691 942.744 123.801C942.934 123.911 943.142 123.966 943.369 123.966ZM943.369 116.875H944.619V115.636C944.619 115.405 944.563 115.197 944.449 115.011C944.335 114.822 944.184 114.672 943.994 114.562C943.809 114.453 943.6 114.398 943.369 114.398C943.142 114.398 942.934 114.453 942.744 114.562C942.555 114.672 942.403 114.822 942.29 115.011C942.18 115.197 942.125 115.405 942.125 115.636C942.125 115.867 942.18 116.078 942.29 116.267C942.403 116.453 942.555 116.6 942.744 116.71C942.934 116.82 943.142 116.875 943.369 116.875ZM949.216 116.875H950.46C950.691 116.875 950.9 116.82 951.085 116.71C951.271 116.6 951.419 116.453 951.528 116.267C951.642 116.078 951.699 115.867 951.699 115.636C951.699 115.405 951.642 115.197 951.528 115.011C951.419 114.822 951.271 114.672 951.085 114.562C950.9 114.453 950.691 114.398 950.46 114.398C950.229 114.398 950.019 114.453 949.83 114.562C949.64 114.672 949.491 114.822 949.381 115.011C949.271 115.197 949.216 115.405 949.216 115.636V116.875ZM950.46 123.966C950.691 123.966 950.9 123.911 951.085 123.801C951.271 123.691 951.419 123.542 951.528 123.352C951.642 123.163 951.699 122.955 951.699 122.727C951.699 122.496 951.642 122.286 951.528 122.097C951.419 121.907 951.271 121.758 951.085 121.648C950.9 121.534 950.691 121.477 950.46 121.477H949.216V122.727C949.216 122.955 949.271 123.163 949.381 123.352C949.491 123.542 949.64 123.691 949.83 123.801C950.019 123.911 950.229 123.966 950.46 123.966ZM945.909 120.182H947.926V118.17H945.909V120.182ZM960.01 125.159C959.491 125.152 958.98 125.057 958.476 124.875C957.976 124.693 957.521 124.39 957.112 123.966C956.703 123.542 956.375 122.972 956.129 122.256C955.887 121.54 955.766 120.646 955.766 119.574C955.766 118.559 955.866 117.657 956.067 116.869C956.271 116.081 956.565 115.417 956.947 114.875C957.33 114.33 957.792 113.915 958.334 113.631C958.875 113.347 959.483 113.205 960.158 113.205C960.851 113.205 961.466 113.341 962.004 113.614C962.542 113.886 962.978 114.263 963.311 114.744C963.648 115.225 963.862 115.773 963.953 116.386H962.22C962.103 115.902 961.87 115.506 961.521 115.199C961.173 114.892 960.718 114.739 960.158 114.739C959.305 114.739 958.641 115.11 958.163 115.852C957.69 116.595 957.451 117.627 957.447 118.949H957.533C957.733 118.619 957.98 118.339 958.271 118.108C958.567 117.873 958.896 117.693 959.26 117.568C959.627 117.439 960.014 117.375 960.419 117.375C961.093 117.375 961.703 117.54 962.249 117.869C962.798 118.195 963.235 118.646 963.561 119.222C963.887 119.797 964.05 120.456 964.05 121.199C964.05 121.941 963.881 122.614 963.544 123.216C963.211 123.818 962.741 124.295 962.135 124.648C961.529 124.996 960.821 125.167 960.01 125.159ZM960.004 123.682C960.451 123.682 960.851 123.572 961.203 123.352C961.555 123.133 961.834 122.837 962.038 122.466C962.243 122.095 962.345 121.68 962.345 121.222C962.345 120.775 962.245 120.367 962.044 120C961.847 119.633 961.574 119.341 961.226 119.125C960.881 118.909 960.487 118.801 960.044 118.801C959.707 118.801 959.394 118.866 959.107 118.994C958.822 119.123 958.572 119.301 958.357 119.528C958.141 119.756 957.97 120.017 957.845 120.312C957.724 120.604 957.663 120.913 957.663 121.239C957.663 121.674 957.764 122.078 957.964 122.449C958.169 122.82 958.447 123.119 958.8 123.347C959.156 123.57 959.557 123.682 960.004 123.682Z" fill="white" fill-opacity="0.8"/>
<path d="M1079.82 125.261C1079.36 125.261 1078.94 125.148 1078.55 124.92C1078.16 124.689 1077.86 124.383 1077.63 124C1077.4 123.614 1077.29 123.189 1077.29 122.727C1077.29 122.261 1077.4 121.837 1077.63 121.455C1077.86 121.068 1078.16 120.759 1078.55 120.528C1078.94 120.297 1079.36 120.182 1079.82 120.182H1081.07V118.17H1079.82C1079.36 118.17 1078.94 118.057 1078.55 117.83C1078.16 117.602 1077.86 117.297 1077.63 116.915C1077.4 116.528 1077.29 116.102 1077.29 115.636C1077.29 115.17 1077.4 114.746 1077.63 114.364C1077.86 113.981 1078.16 113.676 1078.55 113.449C1078.94 113.218 1079.36 113.102 1079.82 113.102C1080.29 113.102 1080.71 113.218 1081.1 113.449C1081.48 113.676 1081.79 113.981 1082.02 114.364C1082.25 114.746 1082.36 115.17 1082.36 115.636V116.875H1084.38V115.636C1084.38 115.17 1084.49 114.746 1084.72 114.364C1084.95 113.981 1085.25 113.676 1085.63 113.449C1086.02 113.218 1086.45 113.102 1086.91 113.102C1087.38 113.102 1087.8 113.218 1088.19 113.449C1088.57 113.676 1088.87 113.981 1089.1 114.364C1089.33 114.746 1089.44 115.17 1089.44 115.636C1089.44 116.102 1089.33 116.528 1089.1 116.915C1088.87 117.297 1088.57 117.602 1088.19 117.83C1087.8 118.057 1087.38 118.17 1086.91 118.17H1085.67V120.182H1086.91C1087.38 120.182 1087.8 120.297 1088.19 120.528C1088.57 120.759 1088.87 121.068 1089.1 121.455C1089.33 121.837 1089.44 122.261 1089.44 122.727C1089.44 123.189 1089.33 123.614 1089.1 124C1088.87 124.383 1088.57 124.689 1088.19 124.92C1087.8 125.148 1087.38 125.261 1086.91 125.261C1086.45 125.261 1086.02 125.148 1085.63 124.92C1085.25 124.689 1084.95 124.383 1084.72 124C1084.49 123.614 1084.38 123.189 1084.38 122.727V121.477H1082.36V122.727C1082.36 123.189 1082.25 123.614 1082.02 124C1081.79 124.383 1081.48 124.689 1081.1 124.92C1080.71 125.148 1080.29 125.261 1079.82 125.261ZM1079.82 123.966C1080.05 123.966 1080.26 123.911 1080.45 123.801C1080.64 123.691 1080.79 123.542 1080.9 123.352C1081.02 123.163 1081.07 122.955 1081.07 122.727V121.477H1079.82C1079.6 121.477 1079.39 121.534 1079.2 121.648C1079.01 121.758 1078.86 121.907 1078.74 122.097C1078.63 122.286 1078.58 122.496 1078.58 122.727C1078.58 122.955 1078.63 123.163 1078.74 123.352C1078.86 123.542 1079.01 123.691 1079.2 123.801C1079.39 123.911 1079.6 123.966 1079.82 123.966ZM1079.82 116.875H1081.07V115.636C1081.07 115.405 1081.02 115.197 1080.9 115.011C1080.79 114.822 1080.64 114.672 1080.45 114.562C1080.26 114.453 1080.05 114.398 1079.82 114.398C1079.6 114.398 1079.39 114.453 1079.2 114.562C1079.01 114.672 1078.86 114.822 1078.74 115.011C1078.63 115.197 1078.58 115.405 1078.58 115.636C1078.58 115.867 1078.63 116.078 1078.74 116.267C1078.86 116.453 1079.01 116.6 1079.2 116.71C1079.39 116.82 1079.6 116.875 1079.82 116.875ZM1085.67 116.875H1086.91C1087.14 116.875 1087.35 116.82 1087.54 116.71C1087.72 116.6 1087.87 116.453 1087.98 116.267C1088.1 116.078 1088.15 115.867 1088.15 115.636C1088.15 115.405 1088.1 115.197 1087.98 115.011C1087.87 114.822 1087.72 114.672 1087.54 114.562C1087.35 114.453 1087.14 114.398 1086.91 114.398C1086.68 114.398 1086.47 114.453 1086.28 114.562C1086.09 114.672 1085.94 114.822 1085.83 115.011C1085.72 115.197 1085.67 115.405 1085.67 115.636V116.875ZM1086.91 123.966C1087.14 123.966 1087.35 123.911 1087.54 123.801C1087.72 123.691 1087.87 123.542 1087.98 123.352C1088.1 123.163 1088.15 122.955 1088.15 122.727C1088.15 122.496 1088.1 122.286 1087.98 122.097C1087.87 121.907 1087.72 121.758 1087.54 121.648C1087.35 121.534 1087.14 121.477 1086.91 121.477H1085.67V122.727C1085.67 122.955 1085.72 123.163 1085.83 123.352C1085.94 123.542 1086.09 123.691 1086.28 123.801C1086.47 123.911 1086.68 123.966 1086.91 123.966ZM1082.36 120.182H1084.38V118.17H1082.36V120.182ZM1092.79 125L1097.87 114.955V114.869H1092V113.364H1099.69V114.92L1094.63 125H1092.79Z" fill="white" fill-opacity="0.8"/>
<defs>
<linearGradient id="paint0_linear_2_48" x1="640" y1="475" x2="640" y2="261" gradientUnits="userSpaceOnUse">
<stop offset="0.00333333"/>
<stop offset="1" stop-opacity="0"/>
</linearGradient>
</defs>
</svg>
